<?xml version="1.0" encoding="utf-8"?>
<!-- Generator: Adobe Illustrator 16.0.0, SVG Export Plug-In . SVG Version: 6.00 Build 0)  -->
<!DOCTYPE svg PUBLIC "-//W3C//DTD SVG 1.1//EN" "http://www.w3.org/Graphics/SVG/1.1/DTD/svg11.dtd">
<svg version="1.1" id="Layer_1" xmlns="http://www.w3.org/2000/svg" xmlns:xlink="http://www.w3.org/1999/xlink" x="0px" y="0px"
	 width="300px" height="300px" viewBox="0 0 300 300" enable-background="new 0 0 300 300" xml:space="preserve">
<circle fill="none" stroke="#FFFFFF" stroke-miterlimit="10" cx="150" cy="149.999" r="147.167"/>
<g>
	<path fill-rule="evenodd" clip-rule="evenodd" fill="#FFFFFF" d="M155.578,54.955c1.058,0.223,2.119,0.429,3.172,0.672
		c4.612,1.064,6.844,3.814,6.847,8.563c0.015,22.362,0.008,44.724,0.008,67.086c0,0.62,0,1.241,0,2.07c0.699,0,1.304,0,1.908,0
		c22.101,0,44.202-0.001,66.302,0c6.077,0.001,8.821,2.112,9.72,8.08c0.802,5.331,0.848,10.729-0.181,16.059
		c-0.966,5.006-3.729,7.197-8.871,7.199c-22.258,0.01-44.516,0.004-66.773,0.004c-0.623,0-1.246,0-2.104,0c0,0.672,0,1.273,0,1.875
		c0,21.996-0.093,43.994,0.055,65.988c0.048,7.049-3.288,9.523-9.196,10.225c-0.405,0.049-0.8,0.201-1.199,0.307
		c-3.553,0-7.107,0-10.661,0c-0.452-0.109-0.897-0.258-1.355-0.316c-5.524-0.721-9.08-2.986-9.036-10.051
		c0.137-22.039,0.05-44.08,0.05-66.119c0-0.605,0-1.209,0-1.908c-0.832,0-1.451,0-2.071,0c-22.301,0-44.602,0.006-66.903-0.004
		c-5-0.002-7.741-2.254-8.782-7.143c-0.226-1.061-0.425-2.129-0.637-3.193c0-3.554,0-7.107,0-10.661
		c0.113-0.551,0.267-1.099,0.333-1.657c0.712-6.049,3.646-8.683,9.711-8.683c22.15-0.002,44.301-0.001,66.451-0.001
		c0.604,0,1.208,0,1.898,0c0-0.839,0-1.46,0-2.081c0-22.359-0.006-44.719,0.007-67.079c0.003-4.739,2.24-7.499,6.848-8.562
		c1.053-0.243,2.115-0.449,3.172-0.672C148.052,54.955,151.814,54.955,155.578,54.955z"/>
</g>
</svg>
