<?xml version="1.0" encoding="utf-8"?>
<!-- Generator: Adobe Illustrator 16.0.0, SVG Export Plug-In . SVG Version: 6.00 Build 0)  -->
<!DOCTYPE svg PUBLIC "-//W3C//DTD SVG 1.1//EN" "http://www.w3.org/Graphics/SVG/1.1/DTD/svg11.dtd">
<svg version="1.1" id="Layer_1" xmlns="http://www.w3.org/2000/svg" xmlns:xlink="http://www.w3.org/1999/xlink" x="0px" y="0px"
	 width="520px" height="71.309px" viewBox="0 0 520 71.309" enable-background="new 0 0 520 71.309" xml:space="preserve">
<path fill="#BABABA" d="M-486-238.691"/>
<g>
</g>
<g>
	<path fill="#ABABAB" d="M43.96,9.814c0-2.443,0.856-3.818,3.058-3.818c2.202,0,3.058,1.375,3.058,3.818v55.598h-8.073L26.042,19.59
		v-0.076h-0.123v42.004c0,2.443-0.856,3.818-3.058,3.818s-3.058-1.375-3.058-3.818V5.92h8.073l15.962,46.356h-0.062h0.123
		L43.96,9.814z"/>
	<path fill="#ABABAB" d="M85.97,65.336c-3.058,0-5.443-0.916-7.583-3.895c-2.019-2.826-2.324-5.575-2.324-9.089V9.738
		c0-2.443,0.856-3.818,3.058-3.818s3.058,1.375,3.058,3.818v42.614c0,4.277,1.04,5.347,3.792,5.347h10.396
		c2.752,0,3.792-1.069,3.792-5.347V9.738c0-2.443,0.856-3.818,3.058-3.818s3.058,1.375,3.058,3.818v42.614
		c0,3.514-0.306,6.263-2.324,9.089c-2.141,2.979-4.525,3.895-7.583,3.895H85.97z"/>
	<path fill="#ABABAB" d="M160.392,50.367c1.223,1.985,2.141,3.742,2.141,6.339c0,5.728-3.486,8.63-7.706,8.63h-13.455
		c-2.324,0-4.342-0.534-6.177-2.443c-1.651-1.681-2.875-4.43-2.875-7.103c0-2.444,1.101-4.583,3.241-4.583
		c1.774,0,2.875,1.833,2.875,3.896c0,2.291,0.979,2.597,2.691,2.597h13.271c0.489,0,2.018,0.229,2.018-0.917
		c0-0.61-0.855-1.756-1.101-2.215l-20.977-33.679c-1.285-2.063-2.019-3.59-2.019-6.263c0-3.055,1.162-5.651,3.241-7.331
		c1.713-1.375,3.119-1.375,5.076-1.375h12.966c2.323,0,4.28,0.611,6.054,2.521c1.591,1.756,2.875,4.582,2.875,7.255
		c0,2.443-0.979,4.43-3.181,4.43c-1.834,0-2.936-1.451-2.936-3.59c0-2.597-1.039-2.979-2.936-2.979h-12.965
		c-0.673,0-2.08-0.229-2.08,1.069c0,0.688,0.673,1.604,0.917,2.063L160.392,50.367z"/>
	<path fill="#F47821" d="M212.676,21.958V9.738c0-2.443,0.855-3.818,3.057-3.818c2.203,0,3.059,1.375,3.059,3.818v12.066
		c0,0.993-0.061,2.063-0.367,2.979l-11.682,37.192c-0.611,1.909-1.162,3.36-3.057,3.36c-1.896,0-2.447-1.451-3.059-3.36
		l-11.682-37.192c-0.305-0.916-0.365-1.985-0.365-2.979V9.738c0-2.443,0.855-3.818,3.057-3.818s3.059,1.375,3.059,3.818v12.22
		l8.99,29.173L212.676,21.958z"/>
	<path fill="#F47821" d="M263.002,57.699h8.99c1.59,0,3.059,1.069,3.059,3.818s-1.469,3.818-3.059,3.818h-24.096
		c-1.59,0-3.057-1.069-3.057-3.818s1.467-3.818,3.057-3.818h8.99V13.557h-8.99c-1.59,0-3.057-1.069-3.057-3.818
		s1.467-3.818,3.057-3.818h24.096c1.59,0,3.059,1.069,3.059,3.818s-1.469,3.818-3.059,3.818h-8.99V57.699z"/>
	<path fill="#F47821" d="M329.17,50.367c1.223,1.985,2.139,3.742,2.139,6.339c0,5.728-3.484,8.63-7.705,8.63h-13.455
		c-2.324,0-4.342-0.534-6.176-2.443c-1.652-1.681-2.875-4.43-2.875-7.103c0-2.444,1.102-4.583,3.242-4.583
		c1.773,0,2.873,1.833,2.873,3.896c0,2.291,0.979,2.597,2.691,2.597h13.271c0.488,0,2.018,0.229,2.018-0.917
		c0-0.61-0.855-1.756-1.1-2.215l-20.979-33.679c-1.283-2.063-2.018-3.59-2.018-6.263c0-3.055,1.162-5.651,3.242-7.331
		c1.711-1.375,3.119-1.375,5.076-1.375h12.965c2.324,0,4.281,0.611,6.055,2.521c1.59,1.756,2.873,4.582,2.873,7.255
		c0,2.443-0.979,4.43-3.18,4.43c-1.834,0-2.936-1.451-2.936-3.59c0-2.597-1.039-2.979-2.936-2.979h-12.965
		c-0.672,0-2.08-0.229-2.08,1.069c0,0.688,0.674,1.604,0.918,2.063L329.17,50.367z"/>
	<path fill="#F47821" d="M375.52,57.699h8.99c1.59,0,3.057,1.069,3.057,3.818s-1.467,3.818-3.057,3.818h-24.096
		c-1.59,0-3.059-1.069-3.059-3.818s1.469-3.818,3.059-3.818h8.99V13.557h-8.99c-1.59,0-3.059-1.069-3.059-3.818
		s1.469-3.818,3.059-3.818h24.096c1.59,0,3.057,1.069,3.057,3.818s-1.467,3.818-3.057,3.818h-8.99V57.699z"/>
	<path fill="#F47821" d="M442.236,27.38c1.162,2.979,1.59,5.193,1.59,8.478c0,3.665-0.795,5.956-2.018,9.088l-5.627,14.052
		c-1.469,3.666-3.914,6.339-7.461,6.339s-5.994-2.673-7.461-6.339l-5.627-14.052c-1.223-3.132-2.018-5.423-2.018-9.088
		c0-3.284,0.428-5.499,1.59-8.478l6.115-15.197c1.467-3.59,3.975-6.263,7.4-6.263c3.424,0,5.932,2.673,7.4,6.263L442.236,27.38z
		 M430.799,15.848c-0.488-1.222-0.795-2.291-2.078-2.291c-1.285,0-1.59,1.069-2.08,2.291l-5.504,13.823
		c-0.918,2.215-1.406,3.666-1.406,6.187c0,1.985,0.367,3.36,1.039,5.04l5.871,14.511c0.428,1.068,0.857,2.291,2.08,2.291
		s1.65-1.223,2.078-2.291l5.871-14.511c0.674-1.68,1.041-3.055,1.041-5.04c0-2.521-0.49-3.972-1.406-6.187L430.799,15.848z"/>
	<path fill="#F47821" d="M494.031,9.814c0-2.443,0.855-3.818,3.057-3.818s3.059,1.375,3.059,3.818v55.598h-8.072L476.111,19.59
		v-0.076h-0.123v42.004c0,2.443-0.855,3.818-3.057,3.818c-2.203,0-3.059-1.375-3.059-3.818V5.92h8.072l15.963,46.356h-0.061h0.121
		L494.031,9.814z"/>
</g>
<polygon fill="#F47821" points="423.882,38.37 423.799,33.084 428.336,30.369 432.955,32.939 433.039,38.225 428.503,40.94 "/>
</svg>
